<?xml version="1.0" standalone="no"?>
<!DOCTYPE svg PUBLIC "-//W3C//DTD SVG 20010904//EN"
 "http://www.w3.org/TR/2001/REC-SVG-20010904/DTD/svg10.dtd">
<svg version="1.0" xmlns="http://www.w3.org/2000/svg"
 width="64.000000pt" height="64.000000pt" viewBox="0 0 64.000000 64.000000"
 preserveAspectRatio="xMidYMid meet">
<metadata>
Created by potrace 1.14, written by Peter Selinger 2001-2017
</metadata>
<g transform="translate(0.000000,64.000000) scale(0.100000,-0.100000)"
fill="#000000" stroke="none">
<path d="M221 620 c-60 -22 -69 -27 -128 -84 -54 -50 -76 -118 -71 -220 1 -39
-1 -81 -5 -93 -6 -18 -5 -23 7 -23 10 0 16 -9 16 -25 0 -27 9 -32 28 -13 9 9
12 8 12 -6 0 -9 5 -14 10 -11 21 13 60 -24 60 -55 0 -35 17 -39 30 -7 10 25
11 24 14 -16 2 -15 6 -30 9 -33 10 -10 27 6 27 27 0 10 5 19 10 19 6 0 10 -7
10 -16 0 -14 3 -14 15 -4 8 7 16 9 16 4 1 -5 2 -13 3 -19 0 -5 6 -12 11 -15 6
-3 11 20 13 58 2 49 0 62 -12 62 -9 0 -13 -10 -12 -31 1 -16 -1 -32 -6 -35 -4
-3 -8 2 -8 12 0 13 -3 14 -15 4 -13 -11 -15 -7 -15 29 0 29 -4 41 -15 41 -7 0
-18 6 -22 14 -4 7 -15 16 -23 19 -9 3 -6 6 10 7 24 1 24 1 -5 14 -16 7 -38 11
-47 8 -10 -2 -18 0 -18 6 0 9 52 9 137 -2 18 -2 31 0 28 4 -3 5 -14 7 -25 5
-11 -2 -23 1 -26 7 -4 7 -2 8 4 4 7 -4 12 -3 12 1 0 8 32 15 70 15 43 1 88 -7
84 -14 -3 -5 -10 -5 -16 -2 -6 4 -8 3 -5 -3 4 -5 23 -9 44 -7 48 3 59 -4 36
-22 -10 -7 -14 -14 -9 -14 5 0 -1 -11 -13 -24 -19 -20 -22 -33 -19 -87 2 -38
8 -64 16 -67 8 -2 12 9 13 35 0 33 2 35 9 15 13 -31 28 -27 32 9 2 22 12 35
33 47 17 9 33 21 36 26 4 4 10 3 13 -3 12 -19 29 -12 23 10 -4 16 0 23 14 26
16 5 19 11 13 27 -4 11 -6 55 -5 96 1 51 -5 94 -18 135 -11 33 -20 56 -20 52
-1 -5 -18 9 -38 31 -82 88 -213 121 -322 82z m189 -26 c46 -15 130 -76 130
-94 0 -4 -7 -11 -16 -14 -8 -3 -12 -2 -9 4 3 5 1 18 -4 27 -8 15 -11 15 -12 3
-1 -8 -1 -19 0 -23 1 -5 -3 -6 -9 -2 -20 12 -32 -7 -13 -21 11 -8 13 -13 6
-14 -7 0 -13 -5 -13 -11 0 -6 10 -9 23 -8 12 2 28 -1 36 -5 10 -7 12 -6 6 4
-5 8 -4 11 2 7 5 -4 10 -20 11 -37 1 -27 -3 -30 -31 -32 -63 -3 -87 2 -137 33
-49 30 -50 32 -50 80 0 27 -4 49 -10 49 -5 0 -10 -18 -10 -41 0 -31 -3 -40
-14 -36 -7 3 -30 -6 -50 -19 -62 -43 -139 -75 -147 -62 -6 9 -12 8 -25 -3 -11
-9 -15 -9 -10 -1 4 7 2 12 -6 13 -9 0 -10 2 -1 5 7 3 10 11 7 19 -4 10 7 12
48 11 l53 -1 1 39 c1 25 -5 45 -16 56 -16 16 -16 18 7 36 67 52 165 67 253 38z
m167 -188 c-2 -37 -17 -39 -17 -2 0 20 7 36 16 36 1 0 2 -15 1 -34z m-57 -168
c0 -4 -7 -8 -15 -8 -8 0 -15 4 -15 8 0 5 7 9 15 9 8 0 15 -4 15 -9z"/>
<path d="M105 409 c-11 -16 -1 -19 13 -3 7 8 8 14 3 14 -5 0 -13 -5 -16 -11z"/>
<path d="M303 213 c15 -2 37 -2 50 0 12 2 0 4 -28 4 -27 0 -38 -2 -22 -4z"/>
<path d="M250 200 c-12 -7 -10 -9 7 -7 12 0 19 5 17 9 -6 10 -6 10 -24 -2z"/>
<path d="M370 200 c-13 -8 -12 -10 3 -10 9 0 17 5 17 10 0 12 -1 12 -20 0z"/>
<path d="M406 202 c-3 -5 1 -9 9 -9 8 0 12 4 9 9 -3 4 -7 8 -9 8 -2 0 -6 -4
-9 -8z"/>
<path d="M298 193 c6 -2 18 -2 25 0 6 3 1 5 -13 5 -14 0 -19 -2 -12 -5z"/>
<path d="M250 150 c0 -5 5 -10 10 -10 6 0 10 5 10 10 0 6 -4 10 -10 10 -5 0
-10 -4 -10 -10z"/>
<path d="M390 100 c0 -33 4 -60 10 -60 6 0 10 27 10 60 0 33 -4 60 -10 60 -6
0 -10 -27 -10 -60z"/>
<path d="M360 119 c0 -5 5 -7 10 -4 6 3 10 8 10 11 0 2 -4 4 -10 4 -5 0 -10
-5 -10 -11z"/>
<path d="M326 113 c-3 -3 -6 -31 -6 -60 0 -39 4 -53 13 -51 7 3 12 25 13 57 0
50 -6 68 -20 54z"/>
<path d="M360 84 c0 -8 5 -12 10 -9 6 4 8 11 5 16 -9 14 -15 11 -15 -7z"/>
<path d="M360 39 c0 -5 5 -7 10 -4 6 3 10 8 10 11 0 2 -4 4 -10 4 -5 0 -10 -5
-10 -11z"/>
</g>
</svg>
